<?xml version="1.0" encoding="UTF-8" standalone="no"?>
<!-- Created with Inkscape (http://www.inkscape.org/) -->

<svg
   xmlns:dc="http://purl.org/dc/elements/1.1/"
   xmlns:cc="http://creativecommons.org/ns#"
   xmlns:rdf="http://www.w3.org/1999/02/22-rdf-syntax-ns#"
   xmlns:svg="http://www.w3.org/2000/svg"
   xmlns="http://www.w3.org/2000/svg"
   xmlns:xlink="http://www.w3.org/1999/xlink"
   xmlns:sodipodi="http://sodipodi.sourceforge.net/DTD/sodipodi-0.dtd"
   xmlns:inkscape="http://www.inkscape.org/namespaces/inkscape"
   width="16"
   height="16"
   viewBox="0 0 16 16"
   id="svg2"
   version="1.1"
   inkscape:version="0.91 r13725"
   sodipodi:docname="logo.svg">
  <defs
     id="defs4">
    <linearGradient
       inkscape:collect="always"
       id="linearGradient4162">
      <stop
         style="stop-color:#c02727;stop-opacity:1"
         offset="0"
         id="stop4164" />
      <stop
         style="stop-color:#981818;stop-opacity:1"
         offset="1"
         id="stop4166" />
    </linearGradient>
    <linearGradient
       inkscape:collect="always"
       xlink:href="#linearGradient4162"
       id="linearGradient4168"
       x1="8.2366076"
       y1="1036.7595"
       x2="8.2366076"
       y2="1052.072"
       gradientUnits="userSpaceOnUse" />
    <filter
       inkscape:collect="always"
       style="color-interpolation-filters:sRGB"
       id="filter4185"
       x="-0.059935184"
       width="1.1198704"
       y="-0.047182949"
       height="1.0943659">
      <feGaussianBlur
         inkscape:collect="always"
         stdDeviation="0.2364141"
         id="feGaussianBlur4187" />
    </filter>
  </defs>
  <sodipodi:namedview
     id="base"
     pagecolor="#ffffff"
     bordercolor="#666666"
     borderopacity="1.0"
     inkscape:pageopacity="0.0"
     inkscape:pageshadow="2"
     inkscape:zoom="31.678384"
     inkscape:cx="4.6432603"
     inkscape:cy="6.5222506"
     inkscape:document-units="px"
     inkscape:current-layer="layer1"
     showgrid="false"
     units="px"
     inkscape:window-width="1920"
     inkscape:window-height="1051"
     inkscape:window-x="0"
     inkscape:window-y="1080"
     inkscape:window-maximized="1" />
  <metadata
     id="metadata7">
    <rdf:RDF>
      <cc:Work
         rdf:about="">
        <dc:format>image/svg+xml</dc:format>
        <dc:type
           rdf:resource="http://purl.org/dc/dcmitype/StillImage" />
        <dc:title />
      </cc:Work>
    </rdf:RDF>
  </metadata>
  <g
     inkscape:label="Layer 1"
     inkscape:groupmode="layer"
     id="layer1"
     transform="translate(0,-1036.3622)">
    <circle
       style="opacity:1;fill:url(#linearGradient4168);fill-opacity:1;stroke:#7f0000;stroke-width:0.49999997;stroke-linecap:square;stroke-linejoin:miter;stroke-miterlimit:4;stroke-dasharray:none;stroke-opacity:1"
       id="path4136"
       cx="8"
       cy="1044.3622"
       r="7.7199965" />
    <path
       id="path4175"
       d="m 8.3571424,1038.558 a 6.1383924,6.1383924 0 0 0 -6.1386719,6.1387 6.1383924,6.1383924 0 0 0 4.4179688,5.8867 6.1383924,6.1383924 0 0 1 -2.8105469,-5.1504 6.1383924,6.1383924 0 0 1 6.1386719,-6.1386 6.1383924,6.1383924 0 0 1 1.7206967,0.2519 6.1383924,6.1383924 0 0 0 -3.3281186,-0.9883 z"
       style="opacity:0.16700003;fill:#181d21;fill-opacity:1;stroke:none;stroke-width:1;stroke-linecap:square;stroke-linejoin:miter;stroke-miterlimit:4;stroke-dasharray:none;stroke-opacity:0.61421317;filter:url(#filter4185)"
       inkscape:connector-curvature="0"
       transform="matrix(1.0794502,0,0,1.0794502,-0.63560159,-82.974766)" />
    <path
       style="opacity:1;fill:#eceff1;fill-opacity:1;stroke:none;stroke-width:1;stroke-linecap:square;stroke-linejoin:miter;stroke-miterlimit:4;stroke-dasharray:none;stroke-opacity:0.61421317"
       d="m 8,1037.7358 a 6.6260889,6.6260889 0 0 0 -6.6263906,6.6264 6.6260889,6.6260889 0 0 0 4.7689773,6.3544 6.6260889,6.6260889 0 0 1 -3.0338454,-5.5596 6.6260889,6.6260889 0 0 1 6.6263906,-6.6264 6.6260889,6.6260889 0 0 1 1.8574131,0.272 A 6.6260889,6.6260889 0 0 0 8,1037.7358 Z"
       id="path4170"
       inkscape:connector-curvature="0" />
  </g>
</svg>
